<?xml version="1.0" encoding="UTF-8" standalone="no"?>
<svg
   xmlns:dc="http://purl.org/dc/elements/1.1/"
   xmlns:cc="http://creativecommons.org/ns#"
   xmlns:rdf="http://www.w3.org/1999/02/22-rdf-syntax-ns#"
   xmlns:svg="http://www.w3.org/2000/svg"
   xmlns="http://www.w3.org/2000/svg"
   xmlns:xlink="http://www.w3.org/1999/xlink"
   xmlns:sodipodi="http://sodipodi.sourceforge.net/DTD/sodipodi-0.dtd"
   xmlns:inkscape="http://www.inkscape.org/namespaces/inkscape"
   xlink:href="http://www.w3.org/2000/svg"
   width="162"
   height="162"
   fill="none"
   version="1.1"
   id="svg10"
   sodipodi:docname="mern_icon.svg">
  <metadata
     id="metadata16">
    <rdf:RDF>
      <cc:Work
         rdf:about="">
        <dc:format>image/svg+xml</dc:format>
        <dc:type
           rdf:resource="http://purl.org/dc/dcmitype/StillImage" />
      </cc:Work>
    </rdf:RDF>
  </metadata>
  <defs
     id="defs14" />
  <sodipodi:namedview
     pagecolor="#ffffff"
     bordercolor="#666666"
     borderopacity="1"
     objecttolerance="10"
     gridtolerance="10"
     guidetolerance="10"
     inkscape:pageopacity="0"
     inkscape:pageshadow="2"
     inkscape:window-width="640"
     inkscape:window-height="480"
     id="namedview12" />
  <circle
     cx="81"
     cy="81"
     r="75"
     fill="#fff"
     stroke="#00d8ff"
     stroke-width="12"
     id="circle2" />
  <g
     fill-rule="evenodd"
     id="g8">
    <path
       d="M67.495 79.126c-.376.079-.994.248-1.374.377s-1.075.428-1.545.664l-1.507.838-1.455 1-1.043.784-.88.746-.686.571c-.026.009-.298-.201-.605-.468l-1.033-.866-1.129-.853-1.331-.891a22.18 22.18 0 0 0-1.546-.847l-1.402-.613c-.294-.102-.814-.252-1.157-.334a7.33 7.33 0 0 0-1.307-.178c-.479-.021-.825-.003-1.158.059a6.13 6.13 0 0 0-.811.213 4.55 4.55 0 0 0-.703.358c-.203.128-.502.371-.666.538s-.405.457-.535.645a6.17 6.17 0 0 0-.433.764c-.108.233-.279.677-.38.987s-.224.807-.273 1.104-.122.978-.16 1.513c-.054.749-.055 1.239-.001 2.13l.165 1.886.298 1.714.203 1.059c0 .043-.4.207-.965.396l-1.738.63-1.791.817-1.782 1.004c-.42.272-1.027.712-1.348.977s-.76.681-.974.925-.494.601-.622.794-.312.516-.407.718-.227.574-.293.827-.119.649-.119.887c0 .27.054.626.147.966a5.88 5.88 0 0 0 .35.934c.112.217.331.566.487.775a9.57 9.57 0 0 0 .645.752 13.1 13.1 0 0 0 .884.804 17.02 17.02 0 0 0 1.158.849c.349.23 1.031.623 1.514.874l1.853.864 1.972.738 1.044.369c.025.022-.061.563-.191 1.202l-.339 2.039c-.072.615-.103 1.352-.105 2.48l.102 2.289a11.34 11.34 0 0 0 .311 1.357c.114.369.3.872.414 1.117s.324.606.468.802.385.484.535.637.437.382.636.509.511.284.693.351.515.16.74.206.664.085.976.085a6.75 6.75 0 0 0 1.169-.12 14.41 14.41 0 0 0 1.346-.361 13.95 13.95 0 0 0 1.654-.698c.501-.251 1.259-.681 1.685-.954l1.257-.856.959-.739.951-.792.608-.521.132-.111.491.435.996.843 1.01.781 1.307.889c.441.284 1.227.728 1.746.987.568.283 1.254.57 1.723.72a13.5 13.5 0 0 0 1.343.353c.31.057.832.103 1.158.103.337 0 .787-.042 1.04-.097a5.31 5.31 0 0 0 .921-.321c.261-.123.588-.316.725-.43s.398-.373.58-.578.448-.594.591-.867.343-.728.444-1.011a9.49 9.49 0 0 0 .299-1.079c.064-.311.147-.876.186-1.256.044-.432.059-1.209.041-2.072l-.134-2.256-.329-1.955-.185-1.114c.022-.019.495-.187 1.05-.374l1.901-.713 1.742-.81 1.366-.764.961-.654c.245-.18.684-.55.974-.823a11.76 11.76 0 0 0 .878-.926c.192-.237.48-.696.639-1.022s.332-.764.384-.974a4.52 4.52 0 0 0 .094-.884c0-.361-.041-.641-.149-1.005-.082-.278-.239-.681-.35-.897s-.322-.553-.47-.751a10.66 10.66 0 0 0-.675-.783c-.223-.233-.67-.632-.993-.886l-1.188-.845a22.97 22.97 0 0 0-1.551-.867l-1.96-.892-1.856-.68-.87-.311c-.013-.022.078-.545.202-1.163l.333-1.984c.079-.638.107-1.298.109-2.553l-.104-2.35a11.64 11.64 0 0 0-.256-1.167 12.06 12.06 0 0 0-.353-1.001c-.112-.27-.291-.638-.397-.817s-.435-.562-.729-.851c-.386-.379-.643-.578-.923-.712a6.28 6.28 0 0 0-.832-.311c-.296-.084-.67-.133-1.126-.149-.565-.02-.801 0-1.366.119zM50.229 81.23c.201.046.592.159.87.252s.708.26.956.373.743.369 1.099.57l1.298.807 1.248.909 1.174.959c.485.414.568.509.52.598-.032.058-.084.121-.115.141s-.36.369-.729.776l-1.117 1.267-.982 1.199-.793 1.036c-.142.199-.282.362-.31.362s-.686.08-1.462.177l-2.705.437-1.655.352c-.198.05-.369.083-.379.073s-.086-.307-.167-.66l-.271-1.429-.183-1.43c-.033-.353-.059-1.141-.059-1.751.001-.654.037-1.355.088-1.708l.18-.963c.051-.2.161-.539.243-.754s.25-.544.373-.73.312-.412.42-.502a2.82 2.82 0 0 1 .441-.285c.135-.068.392-.143.571-.168a4.12 4.12 0 0 1 .704-.018 5.92 5.92 0 0 1 .742.111zm19.541.056c.189.093.453.284.586.426s.356.498.495.792.297.693.35.887.138.614.188.934.107.988.127 1.486c.02.515.006 1.294-.034 1.809l-.221 1.867-.271 1.459-.143.532c-.013.02-.177 0-.366-.044l-1.65-.34-2.699-.437-1.458-.178c-.036 0-.238-.23-.449-.511l-.83-1.065-.916-1.109-1.187-1.333-.729-.846c-.006-.037.219-.265.501-.506l1.05-.868 1.103-.826 1.144-.753c.319-.197.894-.511 1.277-.699s.91-.412 1.169-.499l.891-.269c.32-.085.575-.107 1.073-.094.582.015.691.035.998.186zm-9.992 6.669l1.32 1.492.575.731c0 .023-1.216.041-2.703.04l-2.703-.013c0-.006.209-.269.465-.584l.936-1.102.857-.946c.212-.228.414-.417.448-.418s.396.359.806.8zm1.806 4.39l1.379.093.488.038.764 1.146 1.242 1.934 1.011 1.751.972 1.823.439.861-.406.802-.915 1.737-1.16 2.013-1.282 2.029c-.395.595-.676.96-.75.977-.065.015-.533.054-1.04.088l-2.465.097a43.98 43.98 0 0 1-2.97-.036l-1.869-.11-.443-.039-.407-.584-1.037-1.574-1.157-1.897-1.184-2.184-.657-1.278.426-.852.938-1.786 1.132-1.955 1.272-1.999c.642-.961.657-.978.869-.983l1.196-.079 2.852-.081 2.762.048zm-9.891.523c0 .03-.236.431-.525.89l-.944 1.565-.79 1.419c-.204.379-.392.668-.418.642s-.182-.395-.346-.82l-.62-1.751-.362-1.107c-.037-.116-.009-.138.274-.216.173-.048.783-.18 1.355-.294l1.574-.288.668-.088c.074-.004.134.018.134.048zm15.832.117l1.842.353.887.236c.034.033-.032.332-.17.77l-.541 1.592-.444 1.167c-.12.274-.133.285-.212.179a8.43 8.43 0 0 1-.36-.642l-.722-1.288-.922-1.517-.563-.89c-.081-.123-.078-.131.054-.131.077 0 .595.077 1.15.172zm-21.628 2.09l.779 2.203.794 1.966.303.776c0 .051-.157.453-.35.893l-.767 1.91-.718 2.065-.331.984c-.016.016-.505-.136-1.086-.337l-2.007-.782-1.663-.816-1.248-.766c-.294-.202-.755-.555-1.024-.786s-.624-.595-.788-.809-.365-.52-.446-.68a2.78 2.78 0 0 1-.206-.601c-.041-.213-.039-.402.007-.612a2.93 2.93 0 0 1 .214-.594c.082-.159.248-.422.371-.584s.446-.504.72-.761a11.09 11.09 0 0 1 1.008-.823l1.031-.659 1.154-.612 1.348-.609 1.574-.589.95-.293c.066-.002.169.246.38.916zm27.51-.633l1.307.472 1.366.609 1.49.774c.329.193.851.536 1.159.763s.788.644 1.067.928.603.674.721.866.258.493.31.667.095.388.095.475-.053.325-.117.529-.242.555-.395.779-.481.604-.729.843-.705.619-1.016.846-.875.59-1.255.807l-1.456.75-1.062.473-1.362.491c-.586.206-1.084.354-1.107.329s-.203-.544-.4-1.154l-.8-2.247-.719-1.749c-.152-.336-.276-.654-.276-.707s.137-.408.304-.79l.762-1.889.739-2.101.306-.977c.013-.04.072-.073.13-.073s.48.129.938.286zm-14.985 1.235a5.4 5.4 0 0 0-.867.195c-.24.079-.596.236-.791.348a5.62 5.62 0 0 0-.779.591 5.39 5.39 0 0 0-.698.79c-.15.222-.349.608-.442.859s-.199.703-.237 1.013c-.049.404-.05.696-.005 1.056.035.273.126.679.203.902s.188.497.246.607.251.392.43.626a4.9 4.9 0 0 0 .748.75c.233.179.576.401.763.494a5.75 5.75 0 0 0 .803.299c.374.106.607.131 1.206.129.514-.002.859-.035 1.119-.105a5.92 5.92 0 0 0 .694-.239c.175-.076.479-.246.676-.377a5.47 5.47 0 0 0 .651-.526c.16-.158.423-.48.584-.716a4.57 4.57 0 0 0 .463-.923c.144-.419.175-.614.197-1.272.021-.609.004-.869-.076-1.197-.057-.23-.18-.586-.273-.789s-.288-.532-.431-.73-.391-.478-.551-.624-.41-.346-.557-.444-.405-.248-.573-.331-.516-.204-.772-.267-.653-.127-.882-.142-.609-.004-.846.024zm-8.846 7.869l1.143 1.97.837 1.333c.187.273.192.293.08.311-.066.01-.487-.038-.937-.107l-1.645-.298-1.084-.236c-.158-.039-.257-.096-.257-.15 0-.047.164-.576.364-1.174l.627-1.784.293-.744c.017-.027.04-.049.052-.049s.249.418.527.928zm19.695-.271l.668 1.872.378 1.265c-.017.027-.264.102-.55.167l-1.113.237-1.337.237-.903.117c-.159 0-.155-.009.293-.715l1.008-1.666.799-1.429.332-.609c.049-.073.106-.133.127-.133s.155.296.297.657zm1.781 5.909l.244 1.313.185 1.472c.043.46.057 1.271.037 2.13-.025 1.062-.06 1.517-.151 1.942l-.22.846c-.056.16-.206.496-.333.745s-.341.561-.474.692-.393.307-.578.392c-.298.138-.405.155-.959.152a4.67 4.67 0 0 1-1.151-.132 10.48 10.48 0 0 1-1.116-.362l-.996-.435-.947-.519-1.102-.704-1.177-.866-1.162-.944c-.301-.256-.547-.498-.547-.54s.181-.266.403-.499l.822-.89.979-1.139 1.19-1.489.631-.818 1.478-.19 2.785-.45 1.604-.341c.219-.059.314-.063.362-.015.036.036.123.328.194.649zm-23.09-.527l1.54.318 1.782.293 1.477.192.622.074.318.409.685.873.957 1.167 1.351 1.53.762.882c0 .031-.274.29-.609.576l-1.054.872-.98.734-.861.586-.898.527-1.069.54-.914.358-.832.238c-.236.055-.659.096-.98.096-.49-.001-.613-.022-.935-.165-.231-.102-.47-.268-.634-.441a3.35 3.35 0 0 1-.455-.648c-.105-.205-.242-.517-.305-.693s-.167-.571-.231-.876-.148-.954-.185-1.441c-.051-.67-.051-1.148.002-1.955l.188-1.885.278-1.562c.13-.609.178-.744.263-.744.057 0 .38.066.717.145zm13.762 1.137c.011.001-.069.114-.177.25l-.635.774-1.154 1.301-.716.776-.234-.222a20.84 20.84 0 0 1-.793-.844l-1.122-1.284-.564-.72c-.001-.038.925-.053 2.687-.045l2.708.014z"
       fill="#00d8ff"
       id="path4" />
    <path
       d="M108.931 42.135c-.541.062-1.065.195-1.163.295s-.324.183-.5.184-.636.113-1.023.248a15.09 15.09 0 0 0-1.523.664c-.451.23-.82.475-.82.544s-.113.125-.252.125-.611.303-1.05.673l-1.539 1.369a9.7 9.7 0 0 0-1.176 1.346l-.693.94c-.142.16-.546.86-.898 1.556l-.641 1.42c0 .085-.141.449-.312.809s-.312.791-.312.958-.102.669-.228 1.118-.29 1.616-.366 2.594a27.86 27.86 0 0 0-.006 3.563l.301 2.497.286 1.504c.065.435.243 1.112.395 1.504l.511 1.267.452 1.014c.12.253.217.55.217.66s.058.224.128.253.415.48.766 1.003l.944 1.267a24.25 24.25 0 0 0 1.129 1.029l1.027.91c.111.109.244.198.294.198s.555.285 1.121.633 1.109.636 1.208.64.46.117.804.251.941.313 1.328.397l1.562.29c.472.075 1.913.139 3.202.143 1.661.004 2.525-.06 2.968-.222a4.07 4.07 0 0 1 1.099-.231c.261-.002.751-.145 1.088-.319s.712-.317.834-.317.616-.227 1.099-.505.902-.563.931-.633.149-.128.269-.128.777-.573 1.462-1.273 1.289-1.413 1.343-1.583.159-.311.234-.311.243-.196.372-.435l.421-.831.415-.93c.126-.293.297-.757.381-1.029l.276-.994c.068-.274.065-.595-.007-.713-.096-.159-.627-.221-2.049-.239-1.056-.014-2.108.011-2.337.056-.289.056-.474.235-.602.58l-.317.815-.355.88c-.121.31-.634.99-1.139 1.512s-1.2 1.096-1.544 1.277l-1.327.655c-.387.179-1.16.375-1.719.434a26.01 26.01 0 0 1-2.187.111c-.644.002-1.558-.048-2.03-.111a6.48 6.48 0 0 1-1.522-.418c-.364-.167-.725-.303-.802-.303s-.306-.091-.509-.202a18.45 18.45 0 0 1-.994-.612c-.344-.226-.915-.687-1.268-1.025s-.921-1.042-1.262-1.564-.745-1.271-.901-1.663a10.76 10.76 0 0 1-.418-1.306l-.284-1.267c-.082-.37-.152-.97-.156-1.333s.036-.773.088-.91c.085-.225 1.289-.25 12.017-.25 10.175 0 11.955-.033 12.147-.228.179-.181.212-.614.16-2.098-.036-1.028-.177-2.475-.312-3.215s-.378-1.765-.539-2.277-.293-1.003-.293-1.09-.286-.737-.635-1.444l-.821-1.595a5.26 5.26 0 0 0-.341-.504 100.59 100.59 0 0 1-.937-1.243c-.429-.577-1.378-1.53-2.109-2.12s-1.573-1.221-1.874-1.404-.863-.444-1.25-.58-.847-.248-1.023-.25-.387-.069-.469-.152-.605-.224-1.163-.315-1.754-.157-2.656-.146-2.083.072-2.625.134zm-61.506 1.874c-.082.072-.641.285-1.242.473l-2.109.648a29.29 29.29 0 0 1-1.874.491l-1.424.33c-.311.08-.732.146-.937.147s-.638.096-.963.211-.665.284-.755.375-.141.329-.112.527c.041.284.265.438 1.05.724a23.43 23.43 0 0 1 2.175.966c.861.441 1.261.751 1.489 1.155.302.534.312.825.297 8.604-.011 5.672-.073 8.378-.21 9.157-.14.796-.31 1.23-.606 1.552a2.53 2.53 0 0 1-1.027.61l-1.709.457-1.093.293v.944.944l6.977.008 6.977.008.091-.463a5.65 5.65 0 0 0 .091-.899c0-.24-.088-.504-.195-.587s-.617-.239-1.133-.345a20.02 20.02 0 0 1-1.484-.363c-.301-.093-.67-.277-.82-.411s-.273-.332-.273-.442a.3.3 0 0 0-.19-.264c-.147-.05-.191-2.085-.195-8.84-.004-7.045.037-8.876.207-9.285.117-.28.345-.552.507-.604s.383-.18.491-.285.618-.41 1.133-.678a21.39 21.39 0 0 1 1.796-.82 12.86 12.86 0 0 1 1.747-.508 4.46 4.46 0 0 1 1.873.005c.542.1 1.356.365 1.809.59a6.58 6.58 0 0 1 1.429 1.01c.333.331.817 1.049 1.077 1.596s.546 1.209.637 1.47.241 1.188.334 2.058.159 3.258.148 5.304-.087 4.884-.168 6.306c-.109 1.924-.212 2.686-.4 2.978-.139.216-.521.531-.848.7s-.745.307-.928.307-.696.108-1.139.24-.897.299-1.009.371c-.138.088-.189.41-.156.987l.048.856 6.863.041c5.387.032 6.89-.002 6.988-.158.069-.11.126-.557.128-.994l.002-.794-.763-.275c-.42-.151-.894-.276-1.054-.277s-.556-.096-.88-.21-.748-.345-.943-.512a2.39 2.39 0 0 1-.537-.732c-.132-.308-.189-2.894-.205-9.231l-.022-8.804.428-.373c.235-.205.963-.653 1.616-.996a15.95 15.95 0 0 1 2.421-.984c.954-.279 1.484-.344 2.343-.285a7.1 7.1 0 0 1 2.059.472c.522.218 1.11.53 1.308.695a10.85 10.85 0 0 1 .692.641 10.72 10.72 0 0 1 .623.712c.16.204.436.692.612 1.084s.393.998.481 1.346c.093.37.181 3.697.212 7.996.041 5.745.009 7.449-.147 7.758a3.52 3.52 0 0 1-.512.718c-.172.177-.84.484-1.484.682s-1.33.425-1.523.505c-.29.121-.351.269-.351.849 0 .387.036.798.08.914.065.171 1.352.21 6.834.209 3.715-.001 6.842-.059 6.95-.128.117-.075.195-.468.195-.976v-.85l-.82-.225c-.451-.124-1.207-.317-1.679-.429s-1.06-.347-1.306-.522a2.29 2.29 0 0 1-.664-.844c-.175-.424-.217-2.046-.217-8.408V52.35l-.393-1.486c-.216-.817-.651-1.985-.968-2.596-.343-.661-.977-1.517-1.572-2.12-.548-.555-1.337-1.185-1.754-1.399a14.1 14.1 0 0 0-1.433-.627c-.448-.158-1.281-.239-2.472-.241-1.512-.002-1.958.058-2.812.377l-1.478.563c-.255.101-1.098.575-1.875 1.053l-1.724 1.06a3.3 3.3 0 0 0-.391.27 16.65 16.65 0 0 1-.806.594c-.4.283-.913.515-1.138.515-.247 0-.449-.11-.51-.277-.056-.152-.145-.313-.198-.356s-.266-.329-.474-.633-.711-.876-1.12-1.27a8.36 8.36 0 0 0-1.569-1.15c-.453-.239-.944-.433-1.089-.432s-.308-.069-.361-.156-.844-.158-1.834-.158c-.955 0-1.988.081-2.295.18a16.98 16.98 0 0 0-.87.306c-.172.069-.84.379-1.484.689s-1.504.76-1.909 1-.886.565-1.067.723a3.6 3.6 0 0 1-.708.461c-.208.096-.378.227-.378.29s-.24.23-.533.371-.644.212-.781.16-.258-.178-.269-.278-.004-1.018.016-2.041l.037-1.861h-.376c-.207 0-.443.059-.524.131zm65.537 2.579c.751.128 1.615.425 2.408.829.856.436 1.585.975 2.368 1.752.804.798 1.297 1.459 1.709 2.29.318.643.746 1.806.952 2.584s.373 1.47.373 1.537-.179.204-.397.305c-.287.133-2.844.183-9.178.182l-9.12-.095c-.187-.051-.372-.176-.41-.277s-.013-.504.056-.895.197-.997.286-1.347.343-1.027.567-1.504a35.84 35.84 0 0 1 .639-1.301c.128-.238.706-.915 1.283-1.504s1.476-1.3 2.006-1.586 1.07-.515 1.208-.515.251-.057.251-.127.51-.212 1.133-.316 1.343-.208 1.601-.23a5.43 5.43 0 0 1 .781-.011c.172.016.84.119 1.484.228zm-11.726 37.794l-.758.451c-.046.047-.312.221-.59.387a14.38 14.38 0 0 1-1.137.591c-.347.159-.632.348-.632.419s-.077.13-.172.13-.671.305-1.281.678l-1.172.678c-.035 0-.825.458-1.756 1.017l-1.756 1.018c-.035 0-.562.305-1.172.678s-1.18.678-1.267.678-.183.057-.214.127-.428.317-.883.549-.966.652-1.137.933c-.292.482-.309 1.144-.31 11.725-.001 9.719.033 11.243.25 11.424.138.116.427.165.642.111s.955-.415 1.645-.802l2.157-1.211a88.28 88.28 0 0 0 2.19-1.295c.708-.433 1.508-.901 1.778-1.041s.706-.47.969-.733l.477-.48v-5.403c0-3.147.07-5.587.166-5.843a3 3 0 0 1 .582-.859c.229-.23.533-.418.676-.418s.26-.076.26-.17.083-.17.185-.17.389-.146.639-.325.88-.561 1.4-.848 1.19-.522 1.487-.522.854.172 1.237.382.735.42.781.466a4.08 4.08 0 0 0 .506.326 41.69 41.69 0 0 0 1.094.594c.369.194.834.51 1.031.704s.445.513.549.71c.13.244.191 2.101.194 5.838.003 4.935.032 5.517.295 5.846.16.202 1.07.831 2.022 1.4s1.805 1.033 1.895 1.033.165.076.165.169.071.17.159.17.637.285 1.222.632l1.567.93c.278.164.839.459 1.247.655.59.286.821.321 1.137.177l.396-.182v-11.35-11.349l-.607-.611c-.333-.336-.712-.611-.842-.611s-.236-.067-.236-.15-.132-.192-.295-.244-.749-.357-1.305-.678l-2.191-1.25a105.93 105.93 0 0 1-2.443-1.438l-2.106-1.243-1.6-.896-2.039-1.164c-.865-.499-1.465-.734-1.853-.724-.315.008-.876.18-1.247.382z"
       fill="#45443b"
       id="path6" />
  </g>
</svg>
